<?xml version="1.0" encoding="UTF-8" standalone="no"?>
<!-- Created with Inkscape (http://www.inkscape.org/) -->

<svg
   version="1.1"
   id="svg1"
   width="678.01892"
   height="678.26648"
   viewBox="0 0 678.01892 678.26648"
   sodipodi:docname="icon.png"
   inkscape:version="1.4.2 (ebf0e940d0, 2025-05-08)"
   inkscape:dataloss="true"
   xmlns:inkscape="http://www.inkscape.org/namespaces/inkscape"
   xmlns:sodipodi="http://sodipodi.sourceforge.net/DTD/sodipodi-0.dtd"
   xmlns="http://www.w3.org/2000/svg"
   xmlns:svg="http://www.w3.org/2000/svg">
  <defs
     id="defs1" />
  <sodipodi:namedview
     id="namedview1"
     pagecolor="#ffffff"
     bordercolor="#000000"
     borderopacity="0.25"
     inkscape:showpageshadow="2"
     inkscape:pageopacity="0.0"
     inkscape:pagecheckerboard="0"
     inkscape:deskcolor="#d1d1d1"
     inkscape:zoom="2.5508021"
     inkscape:cx="383.40881"
     inkscape:cy="374"
     inkscape:window-width="3840"
     inkscape:window-height="2128"
     inkscape:window-x="0"
     inkscape:window-y="0"
     inkscape:window-maximized="1"
     inkscape:current-layer="g1">
    <inkscape:page
       x="0"
       y="0"
       width="678.01892"
       height="678.26648"
       id="page2"
       margin="0"
       bleed="0" />
  </sodipodi:namedview>
  <g
     inkscape:groupmode="layer"
     inkscape:label="Image"
     id="g1"
     transform="translate(-47.620548,-13.362682)">
    <g
       id="g2"
       transform="translate(3.5238121,-20.138945)">
      <path
         style="fill:#f5a81d"
         d="m 138.5,711.55315 c -0.55,-0.20802 -2.35,-0.67449 -4,-1.03661 -4.06449,-0.89202 -85.849714,-82.14892 -88.588813,-88.01654 -2.282818,-4.89019 -2.416533,-10.35477 -0.373049,-15.24552 2.071943,-4.95886 4.204046,-7.18895 8.961862,-9.37375 8.9074,-4.09029 16.542959,-1.6363 26.471112,8.50756 3.559111,3.63644 6.914604,6.61171 7.45665,6.61171 0.542046,0 12.053128,-11.0106 25.580178,-24.468 15.695,-15.61419 25.9214,-25.02236 28.26123,-26 5.08568,-2.12493 12.99986,-1.95091 17.52067,0.38526 2.04059,1.05449 10.30498,8.59199 18.36532,16.75 12.34227,12.49182 14.84288,15.53631 15.84455,19.29073 1.33324,4.99714 0.72569,10.69804 -1.64086,15.39698 -0.87117,1.72977 -12.63921,14.26285 -26.15121,27.85129 l -24.56726,24.70626 8.06926,8.40513 c 6.69741,6.97617 8.2387,9.19954 9.06586,13.07783 1.79156,8.40007 -1.33286,16.31374 -8.08957,20.48961 -3.14097,1.94123 -10.08676,3.46198 -12.18593,2.66806 z M 446.81019,529.9356 c -30.03547,-3.4063 -55.98556,-25.96873 -63.43973,-55.15799 -2.4724,-9.68149 -2.50431,-27.70824 -0.0651,-36.77761 3.99532,-14.85522 12.98533,-29.07156 24.27048,-38.38008 41.06187,-33.86974 101.58581,-16.06796 118.58812,34.88008 2.0364,6.10215 2.3344,8.92396 2.32334,22 -0.0117,13.82954 -0.23078,15.62424 -2.80776,23 -11.80449,33.78648 -44.02013,54.38782 -78.86936,50.4356 z m 23.68497,-40.78654 c 28.26964,-13.22896 28.00097,-52.70358 -0.44953,-66.04795 -4.75705,-2.23124 -6.89651,-2.60051 -15.04563,-2.59692 -8.33568,0.004 -10.18778,0.34161 -15.11179,2.75724 -6.75476,3.31377 -15.18805,11.91799 -18.12052,18.48781 -3.22595,7.22731 -3.57593,19.12188 -0.78069,26.53307 7.81446,20.71902 29.91671,30.03469 49.50816,20.86675 z M 645,299.42432 C 640.58082,297.53367 459.69424,117.0872 456.95993,111.84177 c -2.96299,-5.68412 -3.39716,-10.82188 -1.47596,-17.465609 1.64343,-5.683143 2.54206,-6.718552 27.35764,-31.521582 C 496.95372,48.749598 510.075,36.386473 512,35.380968 c 4.79286,-2.503504 16.19801,-2.506334 21,-0.0052 5.3465,2.784732 184.34895,182.198632 186.90479,187.334402 3.23083,6.4921 2.89231,15.38597 -0.82936,21.78984 -4.25595,7.32322 -49.25666,51.78903 -55.07543,54.42078 -5.38083,2.43368 -13.95724,2.66097 -19,0.50354 z"
         id="path3" />
      <path
         style="fill:#4a5eaa"
         d="m 247.55567,594.50714 c -3.04469,-1.0846 -13.03874,-10.48302 -43.81759,-41.20611 -21.93029,-21.89057 -40.74284,-41.4706 -41.80567,-43.51119 -2.5982,-4.98845 -2.57792,-13.83053 0.0441,-19.22412 2.89298,-5.95099 135.15914,-137.92016 140.41235,-140.09707 4.98694,-2.06655 13.25524,-2.06203 18.21422,0.01 4.24692,1.77448 42.39695,38.93063 42.39695,41.29244 0,0.73617 -1.77745,4.28554 -3.94988,7.88749 -17.37168,28.80263 -20.45876,64.73235 -8.35482,97.23973 l 3.49939,9.39828 -42.34734,42.45408 c -44.89074,45.00388 -47.5967,47.27036 -56.34735,47.19571 -2.2,-0.0188 -5.77495,-0.66641 -7.94433,-1.4392 z M 530,372.80969 c -11.64782,-10.6339 -29.90778,-20.25932 -47.07302,-24.81374 -12.55832,-3.33207 -35.98596,-3.90244 -48.92698,-1.19117 -12.93577,2.71018 -25.38226,7.41479 -35.15394,13.28774 -4.49091,2.69911 -8.44614,4.90748 -8.78941,4.90748 -0.34327,0 -15.52763,-14.9625 -33.74301,-33.25 -35.01964,-35.15829 -35.29302,-35.50387 -35.30806,-44.63398 -0.0156,-9.45141 -1.13305,-8.14344 55.90927,-65.44007 31.15742,-31.29634 55.25932,-54.7193 57.58515,-55.96301 6.08294,-3.25279 15.60555,-3.04445 21.5,0.4704 6.69052,3.98953 132.52284,130.35989 134.45962,135.03454 1.97372,4.76381 1.97577,13.79263 0.004,18.56424 -1.01513,2.45684 -10.5947,12.79103 -28.24305,30.46788 -14.68879,14.7125 -26.93501,26.73154 -27.21382,26.70899 -0.27882,-0.0226 -2.53195,-1.88974 -5.00695,-4.1493 z"
         id="path2" />
    </g>
  </g>
</svg>
